# xmcd CD database file
#
# Track frame offsets:
#	150
#	18372
#	49410
#	72275
#	88220
#	116260
#	138612
#	166230
#	195297
#	227225
#
# Disc length: 3367 seconds
#
# Revision: 0
# Processed by: cddbd v1.5.2PL0 Copyright (c) Steve Scherf et al.
# Submitted via: CDex 1.51
#
DISCID=840d250a
DTITLE=The Poma-swank - Red Sky in Brooklyn
DYEAR=2006
DGENRE=Jazz
TTITLE0=Easy Song
TTITLE1=Orlando's Bossa
TTITLE2=In My Arms
TTITLE3=Sometimes I'm Happy
TTITLE4=Red Sky in Brooklyn
TTITLE5=Possibly Maybe
TTITLE6=Never Seen Me Before
TTITLE7=Glass House Blues
TTITLE8=My Favorite Things
TTITLE9=Hallelujah
EXTD=YEAR: 2006
EXTT0=
EXTT1=
EXTT2=
EXTT3=
EXTT4=
EXTT5=
EXTT6=
EXTT7=
EXTT8=
EXTT9=
PLAYORDER=
